<svg id="圖層_1" data-name="圖層 1" xmlns="http://www.w3.org/2000/svg" viewBox="0 0 114.77 30.91"><defs><style>.cls-1{fill:#1a1a1a;}.cls-2{fill:#5ac0ff;}</style></defs><path class="cls-1" d="M0,12.54a20.54,20.54,0,0,0,1.36,7.39,18.51,18.51,0,0,0,6.51,7.83c2,1.45,5.7,2.89,10.44,3.1h7.36a.68.68,0,0,0,.68-.68V22.06a.67.67,0,0,0-.68-.68H18.85c-9.39,0-9.37-7.86-9.37-9.7V.75A.68.68,0,0,0,8.8.07H.68A.67.67,0,0,0,0,.75Z"/><path class="cls-2" d="M53.55,2.32c-3.09,0-6.36,2.7-7.26,4.51a2.86,2.86,0,0,0,.08,2.93,21.52,21.52,0,0,0,3.27,3.73c3.32,2.87,4.22,2.78,7.54-.09a23.51,23.51,0,0,0,3.36-3.81,2.84,2.84,0,0,0,.17-2.88A8.94,8.94,0,0,0,53.55,2.32Z"/><path class="cls-1" d="M26.88,12.54a20.32,20.32,0,0,0,1.36,7.39,18.56,18.56,0,0,0,6.5,7.83,19.89,19.89,0,0,0,10.45,3.1h7.36a.69.69,0,0,0,.68-.68V22.06a.68.68,0,0,0-.68-.68H45.72c-9.39,0-9.36-7.86-9.36-9.7V.75a.68.68,0,0,0-.68-.68H27.56a.67.67,0,0,0-.68.68Z"/><path class="cls-1" d="M67.2,12.54a20.33,20.33,0,0,0,1.37,7.39,18.49,18.49,0,0,0,6.5,7.83c2,1.45,5.71,2.89,10.44,3.1h7.36a.68.68,0,0,0,.68-.68V22.06a.67.67,0,0,0-.68-.68H86.05c-9.39,0-9.37-7.86-9.37-9.7V.75A.67.67,0,0,0,76,.07H67.88a.68.68,0,0,0-.68.68Z"/><path class="cls-1" d="M113,30.91a43.34,43.34,0,0,0-4.14-2.35l1.3-1a43.5,43.5,0,0,1,4.26,2.21Z"/><path class="cls-1" d="M102.31,30.86c-.24-.23-.86-.78-1.24-1.1a16.35,16.35,0,0,0,4.14-2.17l1.48,1A20.88,20.88,0,0,1,102.31,30.86Z"/><path class="cls-1" d="M102.59,27.19V17.72h10.49v9.47Zm1.55-1.35h7.4V19.08h-7.4v1.39h5.42v1.26h-5.42v1.41h5.42v1.24h-5.42Z"/><polygon class="cls-1" points="113.17 4.15 113.17 2.73 107.01 2.73 107.01 4.15 105.75 4.15 105.75 1.58 109.32 1.58 109.32 0 110.77 0 110.77 1.58 114.48 1.58 114.48 4.15 113.17 4.15"/><path class="cls-1" d="M101.94,13.72l-.62,0V12.51h.83a.36.36,0,0,0,.39-.41V8.54l-.2.06L101.06,9l-.32-1.42,1.13-.28.67-.16V4.21H101V2.87h1.59V0h1.33V2.87H105V4.21h-1.13V6.74l1.07-.24.19,1.33-.56.14-.59.14-.11,0V12.1c0,.82-.13,1.2-.52,1.44A3.55,3.55,0,0,1,101.94,13.72Z"/><path class="cls-1" d="M108.7,13.72c-1.17,0-2.55-.29-2.55-1.64,0-.55,0-1.18,2.84-2.84l.48-.28h-2.75V7.75l6.37,0v1c-1.12.44-5.5,2.2-5.5,3.16,0,.52.76.52,1,.52h3.9a1,1,0,0,0,.74-.31,1.76,1.76,0,0,0,.32-1.16h1.18c-.09,2.38-1.18,2.75-2.24,2.79Z"/><path class="cls-1" d="M113.39,7a2.82,2.82,0,0,1-2.56-1.69,2.86,2.86,0,0,1-.22-1.08V3.5h1.21v.75a1.68,1.68,0,0,0,.27.87,1.57,1.57,0,0,0,1.39.69h1V7Z"/><path class="cls-1" d="M106.19,7V5.81h.35A1.63,1.63,0,0,0,108,5.12a1.49,1.49,0,0,0,.27-.87V3.5h1.25v.75a2.69,2.69,0,0,1-.23,1.08,2.74,2.74,0,0,1-1,1.21,2.92,2.92,0,0,1-1.6.48Z"/></svg>
